<svg id="Untitled_Artwork_2_Image" data-name="Untitled_Artwork 2 Image" xmlns="http://www.w3.org/2000/svg" viewBox="0 0 1117.09 1490.18"><defs><style>.cls-1{fill:#fff0;} .white-fill{fill: #fff;}</style></defs><path class="cls-1" d="M1131.09,1566.18H14V76H1131.09Zm-397-650.53,2.78,2,.41-.79-3.34-1.11c1.17-2,2.08-4.18,3.56-5.89,6.08-7,12.37-13.79,18.51-20.72a37.88,37.88,0,0,0,3-4.48l33.25,24.59c-8.4-10.57-19.27-18.23-31-26,5.91-7.29,14.08-11.2,20.7-16.91,6.84-5.89,13.75-11.72,20.38-17.37l9.07,3,.21-.62-7.86-4.07,25.81-19.63c8.51-6.48,18.41-10,28.62-13.41a111.39,111.39,0,0,0-18-4.7c-6.06-1-12.24-1.16-17.87-1.64,9.6-7.18,19.39-14.36,29-21.76,8.2-6.3,16-13.12,24.37-19.22s17.53-11,28.22-12c.9-.08,1.77-.37,4-.85A72.49,72.49,0,0,0,880,745c-9.16-1-18.45-.88-27.68-1.24a150.29,150.29,0,0,1,18.14-9c6-2.49,12.1-5,18.4-6.53s13-1.74,19.58-2.54a6.21,6.21,0,0,0-.63-1.28,16.66,16.66,0,0,0-1.94-1.91c-13.35-10.75-27.5-20.26-43.4-26.81a225.07,225.07,0,0,0-56.76-14.7,30.71,30.71,0,0,1-4-1.24c10.28-5.22,20.36-7,31.51-9.11-17.56-14.79-37.33-24.23-56.57-34.75,1.62-3.77,3.47-7.15,4.56-10.76a153.94,153.94,0,0,0,6.9-47.77c-.33-17.08-4.28-33.42-9.56-49.54a69.69,69.69,0,0,0-11-21.1c-3.66-4.76-8.07-6.38-13.81-5.25-23.88,4.7-45.82,13.82-65,28.93-7.24,5.69-14.13,11.82-21.22,17.78-30.06-12.59-61.58-13.4-91.15-1.91-2.3.89-4.11.28-6.25-.31-8.55-2.34-17.06-5.14-25.79-6.51-21.29-3.36-42-.26-61.92,7.74-2.43,1-3.88.54-5.72-1.23-12.89-12.39-26.81-23.39-43.05-31.16a158.85,158.85,0,0,0-40.71-13.43c-5.33-.95-9.53.6-12.9,5-4.25,5.51-7.93,11.29-10.14,17.92-4.25,12.76-8.17,25.58-9.7,39-2.78,24.28-.34,47.8,9.5,70.35a16.18,16.18,0,0,1,.69,2.39c-19.34,10.5-38.93,19.88-56.18,34.51C320,671.8,325,672.65,329.8,674s10.09,2.13,14.67,6.07a20.21,20.21,0,0,1-2.6.79,230.71,230.71,0,0,0-55.26,14c-16.88,6.71-31.79,16.63-45.81,28-.85.69-1.38,1.77-3,3.84,22.47-3,39.25,8.49,57,16.87-5.17.41-10.22.45-15.26.4a84.85,84.85,0,0,0-37.34,8.53c-.78.37-1.33,1.23-2.45,2.31a42.27,42.27,0,0,1,22.41,6.58c8.51,5.5,16.82,11.38,24.81,17.62,12.16,9.49,23.6,19.92,37.12,27.57a18.72,18.72,0,0,1,2.16,1.95c-13.61-.8-25.69,1.12-37.38,6.2,21.84,4.46,37.22,19.11,54,32.67l-7.34,4,.22.57,8.84-2.91c.79.52,1.26.78,1.68,1.12,11.74,9.44,23.5,18.85,35.16,28.4,1.53,1.26,2.47,3.23,3.8,5-11.42,7.64-22.1,15.17-30.33,25.58,10.39-8.38,21.27-16,32.47-23.59l25.31,28.15c-.8,1.28-1.26,2-1.79,2.86l3.41-1.06c4,4.38,7.75,8.56,11.54,12.72q70.57,77.6,141.16,155.18c6.21,6.83,6.35,6.82,12.41.17Q634,1023.83,688.4,964q20.52-22.58,41.06-45.14C730.69,917.47,731.45,915.12,734.08,915.65ZM439.19,408.16l.59-1.44c1.87-.63,3.73-1.31,5.62-1.9,31.92-9.94,63.34-21.31,94.45-33.55a52,52,0,0,0,7.91-3.63c9.23-5.65,9.16-17.1-.2-22.59a36.33,36.33,0,0,0-8.59-3.32c-13.13-3.66-26.24-7.33-39.44-10.69-23-5.87-45.93-12.52-69.64-15.43a8.31,8.31,0,0,1-4.3-2,18.46,18.46,0,0,0-14.09-4.71A171.2,171.2,0,0,0,392.59,311c-37.42,6.57-74.23,15.87-111,25.09-27.49,6.88-55.05,13.5-81.73,23.21a24.13,24.13,0,0,0-3.55,1.37c-3.88,2.16-4.65,6.59-1.31,9.49a14.66,14.66,0,0,0,6.74,3.18,45.65,45.65,0,0,0,11.38.51c8.86-.75,17.76-1.45,26.51-3,23.6-4.16,47.13-8.75,70.7-13.13,1.8-.34,3.68-1.41,5.82-.06-.52,1.06-.83,1.89-1.29,2.63-18.53,29.43-33.63,60.67-48.73,91.91-8,16.6-13.45,34.12-18.66,51.72a22.1,22.1,0,0,0-.86,6.42,5.28,5.28,0,0,0,9.45,3.23,29.56,29.56,0,0,0,2.23-3.09,807,807,0,0,0,57.42-98.89c9.46-19.43,18.59-39,27.66-58.62,1.38-3,3.49-3.81,6.22-4.48,15.52-3.83,31-7.75,46.53-11.61,1.68-.42,3.41-.66,5.95-1.13-1,2.11-1.48,3.41-2.14,4.63-6,11-12.18,21.91-18,33-13.27,25.25-26.26,50.65-37,77.13-4.7,11.66-8.57,23.58-10.06,36.12a48.76,48.76,0,0,0-.32,10.31c.47,5,3.78,8.46,8,9.18s7.83-1.53,10.23-6.43c1.52-3.09,3-6.23,4.54-9.29,4.32-8.4,9.05-16.6,13-25.17,7.28-15.85,14.08-31.91,21.1-47.87.85-1.92,1.83-3.79,3.08-6.37,6.85,9.26,16.15,14,24.68,19.78a189.92,189.92,0,0,1,33.61,28.45c8.37,9.08,16.83,18.1,25.76,26.62,5.61,5.36,12,9.93,18.35,14.46a20.61,20.61,0,0,0,8.49,3.37c7.8,1.24,13.43-5.62,10.85-13.09-.81-2.34-2.44-4.42-3.8-6.55-1-1.64-2.25-3.17-3.48-4.89,2.64-3.1,5.11-5.76,7.32-8.61q12.51-16.16,24.86-32.43c1.6-2.09,3.21-3.72,6-4.21,12.52-2.18,25-4.55,37.52-6.8,1.52-.28,3.09-.29,5.36-.48-.42,2.95-.68,5.25-1.08,7.52-2.54,14.31-5.21,28.6-7.64,42.92-2,11.65-4,23.36-3.06,35.21.71,9.47-.14,9.88,11.39,11.2,3,.35,5.3-.56,6.58-3.53,2.45-5.66,5.31-11.17,7.42-17,8.69-23.84,13.89-48.57,17.15-73.64,1-7.7,3.42-11.87,11.35-12.69,2.94-.31,5.85-1.91,8.56-3.34,2.23-1.17,4.51-2.85,4.2-5.83-.34-3.24-3.1-4.42-5.73-5.08a61.27,61.27,0,0,0-8.6-1.1c-1.73-.18-3.47-.24-5.64-.38.19-2.53.33-4.49.47-6.44,1.24-17,2.78-34,3.6-51.08.36-7.57-.47-15.24-1.29-22.8a19.54,19.54,0,0,0-3.32-8.49c-3.83-5.6-10.73-5.86-15.46-1-1.14,1.17-2.07,2.66-3.41,3.48-10.92,6.66-19.13,16.14-26.88,26-10.89,13.85-21.64,27.81-32.12,42-17.83,24.09-36.27,47.74-52.24,73.16a26.21,26.21,0,0,1-2.49,2.85C475.52,440.14,460.14,421.26,439.19,408.16ZM290.91,1095.44c-1.11,1.48-1.73,2.32-2.37,3.14-5.22,6.73-10.91,13.15-15.55,20.27-6.93,10.64-13.06,21.8-19.65,32.68-2.63,4.33-5.6,8.45-8.34,12.72a43.62,43.62,0,0,0-2.56,4.77c-1.4,2.94-2.58,6-4.1,8.87-7.77,14.78-15.91,29.38-23.32,44.35-3.28,6.61-5.26,13.89-7.52,21a23.84,23.84,0,0,0-.95,8.07c.47,11.24,11.59,17.2,21.17,11.29a26.68,26.68,0,0,0,7.28-6.47c5.78-7.68,11.95-15.21,16.58-23.56,9.77-17.62,18.74-35.68,27.84-53.66,1.69-3.34,3.73-5.3,7.44-6.34,10.14-2.84,20.25-5.84,30.18-9.33,30.48-10.71,61.35-20.48,90.25-35.25a8.06,8.06,0,0,1,2.12-.42l1,1.43a46.77,46.77,0,0,0-4.82,3.51c-16,15.1-31.95,30.18-47.78,45.42-13.88,13.35-27.39,27.08-39.08,42.45a43.64,43.64,0,0,0-5.4,8.78,11.81,11.81,0,0,0,3.41,14.28c4,3.2,9.49,3.46,14.23.35a43.89,43.89,0,0,0,6.27-5.21c10.44-10.1,20.92-20.17,31.17-30.46,3.11-3.12,6.28-5,10.82-5.3,8-.44,15.91-1.49,23.86-2.22a34.64,34.64,0,0,1,4.45.2c-.5,2-.74,3.39-1.22,4.72a408.88,408.88,0,0,0-18.27,70,25.32,25.32,0,0,0-.45,3.78,6.75,6.75,0,0,0,3.9,6.65,6.64,6.64,0,0,0,7.63-1,20,20,0,0,0,4.21-4.93c5.76-9.88,11.94-19.57,16.93-29.83a1083.32,1083.32,0,0,0,44.29-105.46,125.05,125.05,0,0,0,5.46-19.93,30.89,30.89,0,0,0-.34-12.88c-2.29-9-11-13-19.73-9.83-1.52.57-3.09,1.61-4.59,1.52-5.59-.33-9.66,2.63-13.75,5.7-1.95,1.47-3.9,2.9-5.9,4.39-.49-.85-.65-1-.66-1.16a7.3,7.3,0,0,1,0-1.62c1.68-8.43-1.83-14.72-8.77-18.89a57,57,0,0,0-14.43-6.17c-9.81-2.62-19.76-4.85-29.76-6.63-25.06-4.44-50.39-6.74-75.73-8.83-19-1.56-38-3.45-57.1-2.54a28.28,28.28,0,0,0-4.88.41c-5.46,1.26-7.18,6.77-3.29,10.85a16,16,0,0,0,5.38,3.59,68.61,68.61,0,0,0,11.32,3.84c12.23,2.7,24.53,5.1,36.8,7.62Zm367.73-14.53c-4.07,4-8.25,7.5-11.75,11.61a925.34,925.34,0,0,0-64.46,84.4,354.23,354.23,0,0,0-18.24,31c-3.29,6.2-5.47,13-7.74,19.72a27.7,27.7,0,0,0-1.24,9.12c.07,5.8,2.84,9.93,8.48,12.07a15.63,15.63,0,0,1,4.88,3.14,7.2,7.2,0,0,0,8,1.62,48.18,48.18,0,0,0,5.89-2.82A427.94,427.94,0,0,0,624.21,1224c17.74-12.64,35.4-25.46,53.69-37.27,13.55-8.75,28-16.09,42.16-23.89,2.76-1.52,6-2.26,9-3.37a5.64,5.64,0,0,1-1.74,3.63c-3.5,3.43-7.09,6.77-10.6,10.2-13.63,13.35-27.07,26.89-38.6,42.15a41.71,41.71,0,0,0-5.08,8.34,11.86,11.86,0,0,0,3.41,14.29c4,3.19,9.49,3.43,14.24.35a38.79,38.79,0,0,0,5.87-4.85q16.44-15.91,32.77-31.94c2-1.93,3.89-3.64,6.91-3.89,9.23-.76,18.44-1.76,27.66-2.6a14.4,14.4,0,0,1,3.3.53c-.45,1.76-.69,3.16-1.17,4.49a410.73,410.73,0,0,0-18.27,70,24.2,24.2,0,0,0-.44,3.78,6.94,6.94,0,0,0,11.55,5.59,18.11,18.11,0,0,0,3.9-4.48c5.45-9.22,11.31-18.26,16-27.85a1079,1079,0,0,0,45.68-108.42,118.89,118.89,0,0,0,5.28-19.42,31.06,31.06,0,0,0-.36-12.88c-2.3-9-11-13-19.74-9.8-1.52.56-3.08,1.56-4.6,1.51-7.33-.25-12.1,4.24-16.89,8.74-2.9,2.73-5.58,5.72-8.54,8.38-10.54,9.45-21.15,18.82-31.73,28.22-1.45,1.29-2.87,2.62-4.25,3.89-2.9-2.42-5.74-4.32-8-6.76-3.92-4.26-7.24-9.09-11.26-13.24a312.4,312.4,0,0,1-29.6-35.57q-13.34-18.6-26.91-37c-3.24-4.37-6.87-8.45-10.44-12.56a7.23,7.23,0,0,0-8.87-2.12,7.56,7.56,0,0,0-4.59,8.44,33.79,33.79,0,0,0,2.84,9.31c2.88,6.06,6.17,11.93,9.29,17.88C656.89,1077.37,657.67,1079,658.64,1080.91Zm198-668.15c-1.34,2.78-2.17,4.54-3,6.28-7.78,15.61-15.8,31.09-23.21,46.87a86.06,86.06,0,0,0-5.87,18.65c-1.8,8.49,5.08,14.38,13.2,11.36a30.66,30.66,0,0,0,10-6.38,122.21,122.21,0,0,0,12.38-13.74c16-20.55,29.36-42.82,41.55-65.81,1.8-3.39,3.67-6.6,6.88-9a10,10,0,0,0,4.26-8.47c-.11-3.84,1.48-7,3-10.34,8.79-19.94,17.67-39.85,26.15-59.92,2.52-6,4-12.43,5.65-18.75a23,23,0,0,0,.55-8.09c-.89-7.95-8.8-12.08-15.79-8.19a21.46,21.46,0,0,0-6.56,5.61c-4.73,6.2-9.59,12.39-13.48,19.11-11.47,19.8-22.58,39.81-33.6,59.87-2,3.58-4.3,5.27-8.37,5.73-13.71,1.56-27.38,3.49-41.07,5.23a13.67,13.67,0,0,1-2.91-.24c0-.76-.12-1.16,0-1.45.76-1.65,1.54-3.29,2.39-4.89,8.78-16.74,17.31-33.59,24-51.32a95.14,95.14,0,0,0,3.57-11.43c.91-3.76.21-7.32-3.31-9.63a8.33,8.33,0,0,0-10.2.5,50.87,50.87,0,0,0-9.34,9c-5.36,7.09-10.5,14.39-15.19,21.94q-24,38.65-47.6,77.57c-5,8.22-9.82,16.59-14,25.26a148.36,148.36,0,0,0-8.35,22.39,22.18,22.18,0,0,0,.08,11.21A9.61,9.61,0,0,0,762.59,478c8.12-4.36,14.18-10.62,15.69-20.31a11.05,11.05,0,0,1,1.87-4.38c7.89-11.55,15.92-23,23.77-34.56,1.64-2.43,3.26-3.89,6.48-4,13.24-.49,26.48-1.31,39.72-2C851.89,412.68,853.66,412.76,856.61,412.76ZM505.05,1180.94l1.4.48c-.11,1.93-.21,3.87-.36,5.8-1.28,17-2.61,34-3.82,51.06a41.86,41.86,0,0,0,.2,9.23c1,6.4,4.45,11.12,10.7,13.28s11.9.68,16.63-3.75a32.5,32.5,0,0,0,5.43-6.76c2.55-4.18,4.76-8.57,7.1-12.88,6.65-12.29,12.94-24.8,20-36.84,17-29,34.44-57.69,51.61-86.57,3.43-5.76,6.56-11.72,9.57-17.72a19.37,19.37,0,0,0,2.12-7.24c.43-6.32-5.45-10-11.1-7.15a17.1,17.1,0,0,0-4.3,3.28c-2.43,2.44-4.78,5-7,7.62-21.47,25.64-42,52-60.11,80.13-.92,1.43-2,2.71-3.08,4.06l-1.1-.46.75-9c1.1-13,2.34-26,3.2-39.08.34-5.05,0-10.05,1.52-15.06,1.64-5.51-.85-9.56-6.1-11.72-1.84-.76-3.68-1.52-5.47-2.4-6.69-3.26-12.82-2.19-17.64,3.47a56.47,56.47,0,0,0-5.17,7.66c-15.19,25.19-30.25,50.45-45.53,75.58-7.64,12.57-15.68,24.89-23.48,37.35a41.49,41.49,0,0,0-3.25,6.28c-2.7,6.59-1.05,13,4.11,16.55s11.88,2.82,16.91-2.05a53,53,0,0,0,6-7q18.48-25.63,36.82-51.35C502.75,1184.09,503.91,1182.52,505.05,1180.94Zm373.56-40.54-.55-1.15c1.45-1.5,2.83-3.08,4.36-4.5,14.75-13.74,29.37-27.63,44.34-41.13,10.92-9.85,22.24-19.25,33.52-28.7,3.19-2.66,6.92-4.67,10.26-7.17,8-6,6.63-16.52-2.64-20.41a16.27,16.27,0,0,0-12.26-.27,64.22,64.22,0,0,0-12.24,5.82,152,152,0,0,0-17.17,12.49c-15.4,13.28-30.79,26.61-45.68,40.45-16.89,15.71-33.38,31.85-48,49.75a29.44,29.44,0,0,0-5.77,12.13,12.7,12.7,0,0,0,13.45,16c5-.62,10.08-1.33,15-2.42,16.49-3.64,32.94-7.48,49.42-11.2,1.83-.42,3.71-.61,5.57-.91l.53,1.19c-1.49,1.18-3,2.39-4.47,3.54-12.44,9.44-25,18.74-37.32,28.34-15.5,12.09-29.94,25.36-42.47,40.57a56.65,56.65,0,0,0-6.29,8.85c-3.07,5.65-2.12,11.34,2,14.94,3.91,3.43,9.45,3.61,14.62.07,10.94-7.48,22.17-14.62,32.55-22.83q30.1-23.83,59.3-48.82c7.69-6.57,14.45-14.28,21.25-21.82A32.78,32.78,0,0,0,956,1153c3.82-10.12-2.14-19.36-12.88-20.4a33.33,33.33,0,0,0-7.6.18c-17.1,2.27-34.18,4.65-51.27,7C882.35,1140,880.48,1140.18,878.61,1140.4ZM697.56,369.12c-.1-.5-.21-1-.31-1.49,1.35-1.15,2.63-2.42,4.07-3.44,9.51-6.69,18.79-13.74,28.64-19.87,12.31-7.67,25.1-14.58,37.69-21.8,4.05-2.33,6.81-5.57,6.67-10.45s-2.8-8.85-7.43-10.44a24,24,0,0,0-10.61-1.24,58.48,58.48,0,0,0-14.12,3.88c-35.31,14.34-65.85,36-93.5,61.9a38.68,38.68,0,0,0-7,9c-7.7,13.57.54,27.7,16.18,27.71,4.51,0,9-1,13.53-1.38q20.61-1.87,41.22-3.62c1.9-.16,3.83,0,5.76,0-.08,1.14,0,1.61-.16,1.79-1,1-2.15,1.93-3.26,2.86-13.3,11.27-26.86,22.24-39.84,33.86a328.12,328.12,0,0,0-45.65,51.13,33.2,33.2,0,0,0-4,7.06,8.69,8.69,0,0,0,11.17,11.34,32.3,32.3,0,0,0,7.61-4.15c10.77-8,21.92-15.65,32-24.49,21.71-19,42.94-38.63,64.18-58.19A157.73,157.73,0,0,0,756,402.44c9.92-12.19,5-26.54-11-29.2-13.82-2.3-27.67-4.06-41.7-4.12Z" transform="translate(-14 -76)"/><path class="white-fill" d="M734.05,915.68c-2.6-.56-3.36,1.79-4.59,3.13q-20.6,22.5-41.06,45.14-54.43,59.87-108.9,119.7c-6.06,6.65-6.2,6.66-12.41-.17q-70.61-77.57-141.16-155.18c-3.79-4.16-7.56-8.34-11.54-12.72L411,916.64c.53-.86,1-1.58,1.79-2.86l-25.31-28.15c-11.2,7.56-22.08,15.21-32.47,23.59,8.23-10.41,18.91-17.94,30.33-25.58-1.33-1.79-2.27-3.76-3.8-5-11.66-9.55-23.42-19-35.16-28.4-.42-.34-.89-.6-1.68-1.12L335.84,852l-.22-.57,7.34-4c-16.78-13.56-32.16-28.21-54-32.67,11.69-5.08,23.77-7,37.38-6.2a18.72,18.72,0,0,0-2.16-1.95c-13.52-7.65-25-18.08-37.12-27.57-8-6.24-16.3-12.12-24.81-17.62a42.27,42.27,0,0,0-22.41-6.58c1.12-1.08,1.67-1.94,2.45-2.31A84.85,84.85,0,0,1,279.63,744c5,0,10.09,0,15.26-.4-17.8-8.38-34.58-19.83-57-16.87,1.58-2.07,2.11-3.15,3-3.84,14-11.38,28.93-21.3,45.81-28a230.71,230.71,0,0,1,55.26-14,20.21,20.21,0,0,0,2.6-.79c-4.58-3.94-9.81-4.68-14.67-6.07s-9.77-2.24-15.68-3.55c17.25-14.63,36.84-24,56.18-34.51a16.18,16.18,0,0,0-.69-2.39c-9.84-22.55-12.28-46.07-9.5-70.35,1.53-13.44,5.45-26.26,9.7-39,2.21-6.63,5.89-12.41,10.14-17.92,3.37-4.38,7.57-5.93,12.9-5a158.85,158.85,0,0,1,40.71,13.43c16.24,7.77,30.16,18.77,43.05,31.16,1.84,1.77,3.29,2.2,5.72,1.23,19.95-8,40.63-11.1,61.92-7.74,8.73,1.37,17.24,4.17,25.79,6.51,2.14.59,4,1.2,6.25.31,29.57-11.49,61.09-10.68,91.15,1.91,7.09-6,14-12.09,21.22-17.78,19.22-15.11,41.16-24.23,65-28.93,5.74-1.13,10.15.49,13.81,5.25a69.69,69.69,0,0,1,11,21.1c5.28,16.12,9.23,32.46,9.56,49.54a153.94,153.94,0,0,1-6.9,47.77c-1.09,3.61-2.94,7-4.56,10.76,19.24,10.52,39,20,56.57,34.75-11.15,2.13-21.23,3.89-31.51,9.11a30.71,30.71,0,0,0,4,1.24,225.07,225.07,0,0,1,56.76,14.7c15.9,6.55,30,16.06,43.4,26.81a16.66,16.66,0,0,1,1.94,1.91,6.21,6.21,0,0,1,.63,1.28c-6.61.8-13.24,1-19.58,2.54s-12.39,4-18.4,6.53a150.29,150.29,0,0,0-18.14,9c9.23.36,18.52.19,27.68,1.24a72.49,72.49,0,0,1,27.86,9.14c-2.18.48-3,.77-4,.85-10.69,1-19.82,5.81-28.22,12s-16.17,12.92-24.37,19.22c-9.63,7.4-19.42,14.58-29,21.76,5.63.48,11.81.68,17.87,1.64a111.39,111.39,0,0,1,18,4.7c-10.21,3.38-20.11,6.93-28.62,13.41l-25.81,19.63,7.86,4.07-.21.62-9.07-3c-6.63,5.65-13.54,11.48-20.38,17.37-6.62,5.71-14.79,9.62-20.7,16.91,11.7,7.81,22.57,15.47,31,26L759,884.7a37.88,37.88,0,0,1-3,4.48c-6.14,6.93-12.43,13.74-18.51,20.72-1.48,1.71-2.39,3.91-3.56,5.89ZM814.82,765c-8.76,0-16.73-.19-24.68.06-6.31.2-12.61,1-18.92,1.43-22.38,1.42-44.35,4.75-65.49,12.65-22.23,8.3-43.4,18.49-62.16,33.24-1.07.84-2.25,1.56-4,2.75a7.78,7.78,0,0,1,3.62-5.8c5.37-4,10.85-7.89,16.29-11.81,1.25-.91,2.54-1.76,4-2.74a23.75,23.75,0,0,0-2.12-3c-8.58-8.7-19.16-12.68-31.12-11.26-8.84,1.06-18.65,8.74-20.63,18.57a59.91,59.91,0,0,0-.9,20.5,17.92,17.92,0,0,0,4.15,9.67c3.25,3.89,5.81,8.38,3.76,14a4.15,4.15,0,0,0,.25,2.58c3.56,9.64-.09,17.4-6.44,24.34a92.87,92.87,0,0,1-7.27,6.52c16,7.18,44.54,6.68,57-4.75-5.88-1.55-11.39-3.18-17-4.44s-11-2.09-16.54-3.11a18.22,18.22,0,0,1,8.73-.84c8.36,1.64,16.62,3.73,25,5.48,1.43.3,3.56.41,4.46-.39,4.15-3.76,7.83-7.95,8.81-14.09-12.29-2.82-24.71-.46-36.78-2.95a6.55,6.55,0,0,1,3.89-1.48c8.88.12,17.77.36,26.66.61,2.63.07,5.26.3,7.87.46A44.59,44.59,0,0,0,676.28,833l-32.12,4.73c-.31-3.12,2-3.08,3.59-3.38,7.49-1.4,15-2.64,22.5-3.94l6-1c-.61-5-1.16-9.48-1.76-14.39,19.31-5.41,38.93-7.57,58.87-8.12-7.77,5.14-16.4,8.21-25.07,11.08s-17.56,5.31-26.57,8c.36,1.88,1.59,2.86,3.73,2.73,1.63-.1,3.26-.25,4.89-.37,36.22-2.74,71.27,2.8,105.34,15.06,2.75,1,4.77.8,7-1.06,4.55-3.89,9.16-7.72,13.87-11.42,8.59-6.75,17.34-13.26,28.44-15.4a5.11,5.11,0,0,0,1.43-.83c-.05-.37-.1-.74-.14-1.12l-34.39-2.75a31.55,31.55,0,0,1,2.87-3.27,54.91,54.91,0,0,1,5.28-3.82c13.81-8.54,26.16-18.92,38.28-29.64A126.68,126.68,0,0,1,888,754c1-.47,1.95-1.08,3.36-1.88a105,105,0,0,0-36.07-4.74,67.7,67.7,0,0,1-9.23-.31c-1-.12-2-1.22-3-1.88.73-.88,1.28-2.09,2.22-2.6,7.65-4.15,15.2-8.58,23.14-12.1a171.88,171.88,0,0,1,21.52-7.42c3-.87,6.3-.5,10.33-.75-1.23-1.1-1.8-1.72-2.47-2.2-20.42-14.69-42.65-25.41-67.34-30.79-14.19-3.1-28.36-6.4-43-6.11-17.78.35-35.57.66-53.34,1.36-7.48.29-14-1.42-19.66-6.32a98.15,98.15,0,0,1-9.78-9.45c-3.28-3.81-7-4.59-11.67-3.57a100.32,100.32,0,0,0-24.55,8.72c-4.67,2.42-9.36,4.8-14.11,7.07-.95.45-2.19.28-4.54.54,4.84-9.44,10.57-16.8,16.48-24.14a90.82,90.82,0,0,0-11.63,7.14c-3.85,2.73-7.53,5.7-11.43,8.36-3.64,2.49-6,6.65-10.79,8.32-1.27-4.74.4-8.59,2.26-12.22,6.15-12,12.81-23.64,21.87-33.73.92-1,1.75-2.12,2.74-3.33-.58-.15-.77-.27-.85-.21a26.68,26.68,0,0,0-2.24,1.52,165.37,165.37,0,0,0-32.38,34.39c-13.26,18.85-22.87,39.55-30.88,61.05-1.14,3-1.93,6.2-2.8,9.33-2.94,10.63-2.26,21.59-2.65,32.42a52.71,52.71,0,0,0,5,23.26,29.75,29.75,0,0,0,2.45,3.62c-.15-2.2-.26-3.09-.27-4-.34-19.81,2.31-39.12,10.34-57.39s21.28-30.11,41.26-33.45a136.41,136.41,0,0,1,20.55-2c30.31-.39,59.76,3.21,86.42,19.42,6.42,3.9,12.44,8.16,17.47,13.73,7.12,7.89,12.31,16.6,11.07,28.4C792.73,762,803.61,761.66,814.82,765ZM496.55,682a26.73,26.73,0,0,1-4-1.07c-5.21-2.57-10.23-5.6-15.6-7.74-7.56-3-15.34-5.49-23.1-7.94-4.33-1.37-8.05-.29-11.18,3.4a95.91,95.91,0,0,1-9.35,9.12,26.18,26.18,0,0,1-20,6.84c-8.7-.57-17.42-.93-26.13-1.16-19.24-.51-38.4-.71-57.52,3-28.6,5.48-55.13,15.52-78.79,32.69-1.19.86-2.26,1.87-3.7,3.07,4.94.5,9.18.45,13.18,1.42,15.38,3.71,28.6,12.28,42.42,19.45a2.61,2.61,0,0,1,1.18,2.11,2.63,2.63,0,0,1-1.79,1.67,58.16,58.16,0,0,1-7.57.67c-5.81.14-11.63,0-17.42.26-7.14.36-14,2.31-22.1,4.44a118.8,118.8,0,0,1,32.29,20.56c13.64,12,27.53,23.68,43.13,33.14,1.75,1.06,3.19,2.63,5.45,4.53-12.28,2.81-24.13-.14-35.17,4.21,4.51,1.69,9.24,2.75,13.18,5.11,6.67,4,12.92,8.7,19.2,13.32,4.09,3,7.92,6.36,11.85,9.59a5.23,5.23,0,0,0,5.52,1.09c5.13-1.77,10.34-3.31,15.51-5,20.17-6.43,40.79-10.42,62-10.69,10.7-.14,21.41.22,32.12.46,2.44.06,4.79.42,5.28-2.62-9-2.68-17.84-5.08-26.54-8s-17.35-5.82-25-11.13c19.93.61,39.56,2.75,58.77,8.15-.58,5.08-1.11,9.66-1.67,14.57,2.4.36,4.18.58,5.94.88,7.51,1.28,15,2.54,22.51,3.93,1.64.3,3.89.29,3.63,3.56-10.62-1.68-21.16-4-32.38-4.46-.46,6.28-.44,12,1.47,18,4.54-.41,8.82-.91,13.12-1.15s8.36-.33,12.53-.25,8.5-.67,12.5,1.71a14.17,14.17,0,0,1-5.6,1.19c-7.62.19-15.25.21-22.87.49a83.45,83.45,0,0,0-8.51,1.19c1.53,5.59,4.44,9.44,7.82,13.07a5,5,0,0,0,5.77,1.54c5.56-1.68,11.17-3.27,16.85-4.4,5.34-1.07,10.78-2.24,16.33-.82-5.32,1.53-10.76,2.36-16.11,3.57-5.56,1.26-11,2.89-16.93,4.46,12.6,11.58,42.29,11.81,56.93,4.55-1.85-1.53-3.72-3-5.44-4.53-5.26-4.8-9.14-10.53-9.57-17.79-.33-5.61,1.33-11.16,1.55-16.84.12-3.22,3.11-6.34,4.83-9.49.85-1.55,2.31-3,2.57-4.6,1.31-8.28,1.62-16.43-.47-24.83-2.49-10-13.77-17.56-21.75-18.07a37.42,37.42,0,0,0-27.65,9.3,43,43,0,0,0-4.41,5.11c4.79,3.23,9.13,5.9,13.16,9s8.8,5.41,11.15,11.72c-2-1.38-3.05-2-4-2.78-24.15-18.82-51.5-31.13-80.8-39.24-21.1-5.83-42.94-6.79-64.63-8.32-8.46-.59-17-.09-26-.09,10.93-3.47,21.93-3,32.8-3-.42-10.58,2.61-18.74,9.86-27,10.37-11.74,23.63-19.29,38-24.61,25.11-9.3,51.27-11.47,77.8-9.61,25.68,1.79,43.67,14.5,52.88,38.76,6.52,17.16,9.1,35.06,8.71,53.4,0,1.11,0,2.22,0,3.33a41.2,41.2,0,0,0,6.91-21.23c.72-17.29,0-34.45-7.17-50.68-3.22-7.31-6.1-14.77-9.43-22-11.77-25.72-27.07-48.9-49.2-67-1.61-1.32-3.31-2.55-5-3.82a17.65,17.65,0,0,0,3.47,5.45,147.65,147.65,0,0,1,21.75,35.71c1.15,2.6,2.17,5.29.44,9.1-2.92-2.55-5.4-4.8-8-6.92s-5.39-4.31-8.17-6.36-5.87-4.28-8.91-6.26c-2.68-1.74-5-4.25-8.84-4.89,3.3,4.15,6.43,7.69,9.09,11.56S495.61,676.1,496.55,682Zm126,292.08,1.15.51c.13,9.74-2,19.74,2.79,29.19.47-.49.81-.7.94-1q1-2.24,1.85-4.53c6.08-15.79,15.25-29.66,26.45-42.24,4.71-5.3,6.26-4.89,8.39,2,1,3.36,1.76,6.82,2.63,10.24.33-.13.75-.17,1-.4,8.89-10.51,16.2-21.85,18.69-35.73a40.06,40.06,0,0,1,1.84-6.81c1.18-3.2,2.22-3.5,5.33-1.92,1.62.82,3.13,2,4.84,2.45,2.26.64,5.14,1,6.43-1.31,2.22-4,3.78-8.36,5.66-12.67-11.43,2-22.22,4.38-33.14,5.68s-21.89-.26-33.24-2c0,2.86.08,5,0,7.17-.33,7.07-.51,14.16-1.17,21.2A22.51,22.51,0,0,1,635.08,959c-1.5,1.32-3,2.68-4.41,4a65.43,65.43,0,0,1-24.29,14.81c-13.76,4.68-27.64,5.6-41.86,5.08-10.67-.38-20.66-3.77-30.54-7.31-8.41-3-14.34-9.64-20.93-15.32a26.89,26.89,0,0,1-9.75-19.9c-.35-6.89-.59-13.79-.92-20.68-.06-1.34-.33-2.68-.52-4.18-11,2.09-21.73,3.21-32.4,2-9.33-1.06-18.52-3.38-27.77-5.14-1.64-.31-3.28-.59-5.74-1,2.4,5.48,4.34,9.9,6.16,14.07a10.71,10.71,0,0,0,8.8-.61c6.26-3.31,7.36-2.74,8.91,4.14.08.35.12.71.17,1.07,1.88,14.44,9.38,26.11,18.31,37.07a15.21,15.21,0,0,0,2.07,1.77c.37-2.47.54-4.58,1-6.62a46.7,46.7,0,0,1,2.07-6.76c1.47-3.68,3-3.93,6-1.17.4.37.77.78,1.13,1.18,12.1,13.54,21.78,28.56,28,45.7.44,1.22,1,2.41,1.52,3.8,4.78-10,2.17-20.52,3.78-30.76a9.45,9.45,0,0,1,3,3.61c4.32,9.48,10.07,18,16.3,26.35,9.9,13.21,20.78,25.74,28.47,40.51.36.69,1.18,1.13,2,1.89.74-1.06,1.32-1.75,1.74-2.52,5.92-10.9,13.31-20.76,21-30.49,9.08-11.57,18.06-23.25,24-36.89A11.94,11.94,0,0,1,622.56,974.06Zm145.56-383c-9.72,7.8-17.17,15.84-22.53,25.87,4.08,5.34,9.42,9,15.31,11.9,9,4.49,9.89,4.38,12.87-5.21a153.65,153.65,0,0,0,6.79-36.85c.71-12.63-1.62-24.92-3.86-37.26-2.21-12.19-7.28-23.16-13-33.91-2.33-4.36-3.28-4.32-7.79-2.41-3.12,1.33-4,4.21-5.93,6.44a255.22,255.22,0,0,0-30.45,45c-.47.9-.83,1.85-1.24,2.78,10.65-9.09,21.39-17.64,34.81-22.21a17,17,0,0,1-3.44,4.72c-8.21,8.15-14.35,17.77-19.76,27.9a25.29,25.29,0,0,0-1.22,3.88c10.47-7.65,20.83-13.05,33.1-14.53-7.83,8.82-16.31,16.93-21.29,28.35,4.8-1.64,8.95-3.3,13.23-4.44S762.32,588.42,768.12,591.07Zm-339.2-23.53c-.34-.79-.64-1.6-1-2.36a247.84,247.84,0,0,0-29.27-43.81c-2.26-2.74-3.19-6.59-7.32-8.07-4.85-1.75-5.56-2.24-7.77,2.29-3.88,8-8.22,15.92-10.62,24.37-5.48,19.29-8.5,39-4.95,59.13,1.57,8.89,3.93,17.66,6.22,26.41.65,2.5,1.63,5.22,4.25,6.51,9.81-3.13,17.72-8.35,23.28-15.52-3.17-4.38-6.16-9.16-9.8-13.36s-7.88-7.72-12-11.67c3.48-2.05,4-2.45,7-1.71,5.44,1.35,10.77,3.09,16.14,4.68,1,.31,2.07.68,4.34,1.43-2.84-4.49-4.81-8-7.13-11.15a113.19,113.19,0,0,0-7.31-8.77c-2.59-2.88-5.35-5.61-8-8.4l.75-1c12,2,22.47,7.67,32.72,14.39a96.89,96.89,0,0,0-6.84-12.88c-2.64-4.11-5.59-8-8.47-12-2.77-3.79-7-6.44-9.59-11.76C407.5,550,418.27,558.33,428.92,567.54Zm33,264.78c-1.4-.22-3-.57-4.54-.7a242.81,242.81,0,0,0-90.78,9.82c-5.05,1.53-9.81,4-15.7,6.41,11.07,8.81,21.18,17,31.48,25,9.16,7.07,9.24,6.92,19.64,1.84,16.79-8.21,33.87-15.66,52.19-19.86,2.44-.56,4.85-1.21,7.71-1.92Zm223.58,20.5a29.42,29.42,0,0,0,3.21,1.11,204.82,204.82,0,0,1,43.7,14.8c6.25,2.87,12.72,5.3,18.81,8.47,3.72,1.94,6.36,1.18,9.3-1.2,11.15-9,22.39-17.89,33.57-26.86a6.5,6.5,0,0,0,1.07-1.72c-4.82-2-9.17-4.33-13.8-5.74a244.65,244.65,0,0,0-92.49-10,27,27,0,0,0-4.31,1C684.92,839.79,685.22,846.26,685.53,852.82Zm29.75,50c-1.32-1.6-2.11-3.07-3.34-4-10.89-7.88-22.11-15.2-34.51-20.58a7.17,7.17,0,0,0-7.59.64c-11.19,7.35-23.38,10.45-36.76,8.2-1-.17-2.16.34-3.3.54.21.72.21,1,.32,1.06a10.78,10.78,0,0,0,1.6,1.43,26.06,26.06,0,0,1,10.81,15.2c1.2,4.3,3.46,5.81,7.46,6.42a116.13,116.13,0,0,0,44.8-1.84A109.48,109.48,0,0,0,715.28,902.79ZM516.79,888.44l-.38-1.07a14.43,14.43,0,0,0-3.06-.19c-12.77,2-24.5-.89-35.22-7.81a8.88,8.88,0,0,0-9.55-.7c-11.75,5.41-22.56,12.33-33,19.87-1.33,1-2.24,2.51-3.56,4a95.65,95.65,0,0,0,37.57,10.07c9.16.52,18.41-.52,27.62-1,3.33-.18,5.39-1.52,6.28-5.38,1.41-6.12,5.25-11.06,10.11-15.1C514.66,890.27,515.72,889.35,516.79,888.44Zm-45.64-13.91c-2-4.33-4.13-8.49-5.95-12.78-2.58-6.11-2.56-6.18-9.28-4.78-.35.07-.7.19-1.05.27-18.21,3.91-35.24,11-51.64,19.61-2.48,1.31-4.64,3.25-7.3,5.16a33.46,33.46,0,0,0,2.92,2.29c7.45,4.47,15.09,8.66,22.34,13.45,4.71,3.1,8.45,2.61,12.78-.61a190.07,190.07,0,0,1,35.32-21.26A11.48,11.48,0,0,0,471.15,874.53Zm280.7,7.77c-3.78-2.55-6.27-4.73-9.15-6.07-9.36-4.36-18.68-8.88-28.35-12.44-8.29-3.06-17-5.07-25.59-7.18-4.13-1-4.43-.5-6.08,3.4-1.2,2.83-2.36,5.69-3.67,8.47-1,2-2.17,4-3.35,6.1,1.59.85,2.54,1.32,3.47,1.86,9.36,5.5,18.75,10.95,28.07,16.53,2.79,1.67,5.28,3.86,8.09,5.5,2.12,1.24,4.39,2.7,7.08,1.12C731.85,894,741.36,888.45,751.85,882.3Zm-138-41.95c-.82-2.32-1-3.57-1.64-4.53-8.1-12.27-17.16-16.24-29.87-13.65a43.62,43.62,0,0,1-17.63,0c-12.41-2.47-23.64,2.77-29.61,13.24a23.29,23.29,0,0,0-1.36,3.64,9.8,9.8,0,0,0,4.2-2.94c7.27-9,17-9.86,27.17-7.57a37.39,37.39,0,0,0,17,0c10.15-2.23,19.9-1.33,27.13,7.7C610.27,837.43,611.64,838.36,613.86,840.35Zm28.88,72.78c-2.64,3.22-4.51,6.06-6.91,8.34a60,60,0,0,1-26.9,14.81c-22,5.58-44.2,5.53-66.4,1.19a61.59,61.59,0,0,1-30.41-14.93c-2.66-2.44-4.9-5.34-7.87-8.62a18.48,18.48,0,0,0,5.66,9.23,69.58,69.58,0,0,0,37.57,18.35,159.56,159.56,0,0,0,52.06,0A68.94,68.94,0,0,0,637,922.94,18.62,18.62,0,0,0,642.74,913.13ZM473.23,732.32c-6,10.3,0,26.25,12,32.59,9.84,5.21,25.56,1.94,30.51-9.51C493.58,767.63,472.41,752.42,473.23,732.32Zm158.24,23.29c4.47,7.59,11,11.62,19.73,11.68,10.41.08,17.46-5.42,22.15-14.15,3.85-7.18,3.8-15.89.24-20.49.62,11.28-4.67,19.15-14,24.15S640.75,760.49,631.47,755.61Zm-118.63-16.8c-2.89,7.65-8.39,10.63-16,9-8.19-1.74-10.1-8.28-10.39-15.8a6.46,6.46,0,0,0-5.62,5.51c-.87,4-.62,7.94,2.32,11.22a20.71,20.71,0,0,0,19.42,7.09C512.06,754.48,516.07,748.27,512.84,738.81ZM660,732c.21,7.08-1.64,13.21-9,15.58-2.59.84-5.74.46-8.55,0-4.6-.68-6.26-4.91-8.38-8.75-3.31,6-1.88,11.79,3.75,14.72,9.88,5.15,19.81,2.81,26.58-5.89A10.09,10.09,0,0,0,660,732ZM534.51,908.12c.19,4.87,3.31,7.45,7.07,9.49a52.13,52.13,0,0,0,20.81,5.79c11.29,1,22.55,1,33.49-2.14a53.65,53.65,0,0,0,12.65-6A7.19,7.19,0,0,0,612,906.9c-2.57,6.9-8,9.26-13.58,10.84a91.56,91.56,0,0,1-50,.07C542.82,916.25,537.55,913.75,534.51,908.12Zm45.59-27.34c-4.69-.34-8.91-1-13,.36v12.2h13Zm-45-35.49c-3.51,4.71-.42,8.78,1.81,12.53,2.82,4.77,7.85,5.55,12.89,4.87,4.51-.62,7.31-3.47,8-7.14C546.25,862.85,535.45,855.77,535.09,845.29Zm19.76,34.46v12.64l9.3,1V880.56ZM583,892.81c3.2,1,6.3.09,9.26-.81V879.75l-9.26.85Zm29.27-47.48c-2.16,12.35-11,16.42-23.47,10,1.12,5.09,5,6.59,8.61,7.33,4.75,1,9.62,0,12.55-4.35C612.53,854.42,615.13,850.2,612.23,845.33Zm-.72,52a19.79,19.79,0,0,0,7.2-12.63l-11.65-2.07Zm-59.27-5.27v-12.4c-6.07-2.39-7.66-1.23-9.66,7.52ZM595,879.8v11.51c3.91-1,7.42-1.63,9.5-4.95C602.13,878.12,600.76,877.21,595,879.8Zm-66.71,5c.89,5.29,2.89,8.87,7.73,11.12,1.32-4.4,2.56-8.55,4-13.27Zm114.5-167.63c-2.9.11-5.65,2.94-5.44,5.61a3.68,3.68,0,0,0,4.09,3.36c3.45-.24,6-2.5,5.78-5.21A4.09,4.09,0,0,0,642.82,717.15Zm-133.09,5.31c.1-2.67-2.79-5.37-5.72-5.33a4.07,4.07,0,0,0-4.17,4c-.07,2.59,2.74,4.91,6,5A3.82,3.82,0,0,0,509.73,722.46Z" transform="translate(-14 -76)"/><path class="white-fill" d="M439.19,408.16c20.95,13.1,36.33,32,52.54,50.44a26.21,26.21,0,0,0,2.49-2.85c16-25.42,34.41-49.07,52.24-73.16,10.48-14.16,21.23-28.12,32.12-42,7.75-9.87,16-19.35,26.88-26,1.34-.82,2.27-2.31,3.41-3.48,4.73-4.86,11.63-4.6,15.46,1a19.54,19.54,0,0,1,3.32,8.49c.82,7.56,1.65,15.23,1.29,22.8-.82,17-2.36,34.06-3.6,51.08-.14,1.95-.28,3.91-.47,6.44,2.17.14,3.91.2,5.64.38a61.27,61.27,0,0,1,8.6,1.1c2.63.66,5.39,1.84,5.73,5.08.31,3-2,4.66-4.2,5.83-2.71,1.43-5.62,3-8.56,3.34-7.93.82-10.35,5-11.35,12.69-3.26,25.07-8.46,49.8-17.15,73.64-2.11,5.78-5,11.29-7.42,17-1.28,3-3.53,3.88-6.58,3.53-11.53-1.32-10.68-1.73-11.39-11.2-.89-11.85,1.09-23.56,3.06-35.21,2.43-14.32,5.1-28.61,7.64-42.92.4-2.27.66-4.57,1.08-7.52-2.27.19-3.84.2-5.36.48-12.51,2.25-25,4.62-37.52,6.8-2.8.49-4.41,2.12-6,4.21q-12.35,16.28-24.86,32.43c-2.21,2.85-4.68,5.51-7.32,8.61,1.23,1.72,2.44,3.25,3.48,4.89,1.36,2.13,3,4.21,3.8,6.55,2.58,7.47-3,14.33-10.85,13.09a20.61,20.61,0,0,1-8.49-3.37c-6.34-4.53-12.74-9.1-18.35-14.46-8.93-8.52-17.39-17.54-25.76-26.62a189.92,189.92,0,0,0-33.61-28.45c-8.53-5.76-17.83-10.52-24.68-19.78-1.25,2.58-2.23,4.45-3.08,6.37-7,16-13.82,32-21.1,47.87-3.93,8.57-8.66,16.77-13,25.17-1.58,3.06-3,6.2-4.54,9.29-2.4,4.9-6,7.16-10.23,6.43s-7.51-4.18-8-9.18a48.76,48.76,0,0,1,.32-10.31c1.49-12.54,5.36-24.46,10.06-36.12,10.7-26.48,23.69-51.88,37-77.13,5.83-11.09,12-22,18-33,.66-1.22,1.17-2.52,2.14-4.63-2.54.47-4.27.71-5.95,1.13-15.51,3.86-31,7.78-46.53,11.61-2.73.67-4.84,1.51-6.22,4.48-9.07,19.61-18.2,39.19-27.66,58.62a807,807,0,0,1-57.42,98.89,29.56,29.56,0,0,1-2.23,3.09,5.28,5.28,0,0,1-9.45-3.23,22.1,22.1,0,0,1,.86-6.42c5.21-17.6,10.64-35.12,18.66-51.72,15.1-31.24,30.2-62.48,48.73-91.91.46-.74.77-1.57,1.29-2.63-2.14-1.35-4-.28-5.82.06-23.57,4.38-47.1,9-70.7,13.13-8.75,1.54-17.65,2.24-26.51,3a45.65,45.65,0,0,1-11.38-.51,14.66,14.66,0,0,1-6.74-3.18c-3.34-2.9-2.57-7.33,1.31-9.49a24.13,24.13,0,0,1,3.55-1.37c26.68-9.71,54.24-16.33,81.73-23.21,36.82-9.22,73.63-18.52,111-25.09a171.2,171.2,0,0,1,18.91-2.14,18.46,18.46,0,0,1,14.09,4.71,8.31,8.31,0,0,0,4.3,2c23.71,2.91,46.59,9.56,69.64,15.43,13.2,3.36,26.31,7,39.44,10.69a36.33,36.33,0,0,1,8.59,3.32c9.36,5.49,9.43,16.94.2,22.59a52,52,0,0,1-7.91,3.63c-31.11,12.24-62.53,23.61-94.45,33.55-1.89.59-3.75,1.27-5.62,1.9Zm71.48-48c-3-.83-4.87-1.38-6.73-1.84-13.54-3.4-27.11-6.74-40.64-10.18-11.61-2.95-23.18-6-34.78-9-4.37-1.12-4.7-1-6,2.25q-9.79,24.51-19.54,49a15.21,15.21,0,0,0-.54,3C411.83,392.72,501.71,365.33,510.67,360.16Zm90.34-8-.94-.3a12.46,12.46,0,0,0-1.39,1.52q-17.28,26.37-34.54,52.77c-.07.11,0,.34.07.51s.15.31.43.89c1.77-.11,3.73-.17,5.67-.39,6-.65,11.89-1.35,17.84-2.06,5.47-.66,5.6-.72,6.4-6.15q3.23-22.08,6.33-44.17C601,353.92,601,353,601,352.16Z" transform="translate(-14 -76)"/><path class="white-fill" d="M290.91,1095.44l-6.27-1.32c-12.27-2.52-24.57-4.92-36.8-7.62a68.61,68.61,0,0,1-11.32-3.84,16,16,0,0,1-5.38-3.59c-3.89-4.08-2.17-9.59,3.29-10.85a28.28,28.28,0,0,1,4.88-.41c19.11-.91,38.1,1,57.1,2.54,25.34,2.09,50.67,4.39,75.73,8.83,10,1.78,19.95,4,29.76,6.63a57,57,0,0,1,14.43,6.17c6.94,4.17,10.45,10.46,8.77,18.89a7.3,7.3,0,0,0,0,1.62c0,.16.17.31.66,1.16,2-1.49,3.95-2.92,5.9-4.39,4.09-3.07,8.16-6,13.75-5.7,1.5.09,3.07-1,4.59-1.52,8.69-3.2,17.44.84,19.73,9.83a30.89,30.89,0,0,1,.34,12.88,125.05,125.05,0,0,1-5.46,19.93,1083.32,1083.32,0,0,1-44.29,105.46c-5,10.26-11.17,19.95-16.93,29.83a20,20,0,0,1-4.21,4.93,6.64,6.64,0,0,1-7.63,1,6.75,6.75,0,0,1-3.9-6.65,25.32,25.32,0,0,1,.45-3.78,408.88,408.88,0,0,1,18.27-70c.48-1.33.72-2.73,1.22-4.72a34.64,34.64,0,0,0-4.45-.2c-7.95.73-15.89,1.78-23.86,2.22-4.54.26-7.71,2.18-10.82,5.3-10.25,10.29-20.73,20.36-31.17,30.46a43.89,43.89,0,0,1-6.27,5.21c-4.74,3.11-10.23,2.85-14.23-.35a11.81,11.81,0,0,1-3.41-14.28,43.64,43.64,0,0,1,5.4-8.78c11.69-15.37,25.2-29.1,39.08-42.45,15.83-15.24,31.82-30.32,47.78-45.42a46.77,46.77,0,0,1,4.82-3.51l-1-1.43a8.06,8.06,0,0,0-2.12.42c-28.9,14.77-59.77,24.54-90.25,35.25-9.93,3.49-20,6.49-30.18,9.33-3.71,1-5.75,3-7.44,6.34-9.1,18-18.07,36-27.84,53.66-4.63,8.35-10.8,15.88-16.58,23.56a26.68,26.68,0,0,1-7.28,6.47c-9.58,5.91-20.7,0-21.17-11.29a23.84,23.84,0,0,1,.95-8.07c2.26-7.08,4.24-14.36,7.52-21,7.41-15,15.55-29.57,23.32-44.35,1.52-2.88,2.7-5.93,4.1-8.87a43.62,43.62,0,0,1,2.56-4.77c2.74-4.27,5.71-8.39,8.34-12.72,6.59-10.88,12.72-22,19.65-32.68,4.64-7.12,10.33-13.54,15.55-20.27C289.18,1097.76,289.8,1096.92,290.91,1095.44Zm15.4,1.88c-.21,2.9-.08,5.42-.61,7.79-2,8.64-4.17,17.23-6.27,25.84-.44,1.82-1.86,3.54-.6,6,1.81-.52,3.53-1,5.23-1.52,12.6-4,25.21-8,37.79-12.14q19.13-6.23,38.2-12.65a52.68,52.68,0,0,0,5.1-2.29l-.24-1.49C359,1102.77,332.92,1100.66,306.31,1097.32ZM429.17,1148c-.38-.38-.76-.76-1.15-1.13-4,3.55-8.17,7-12,10.68s-7.34,7.53-10.89,11.41-7.63,7.41-10.74,12.86c5.43.65,9.88,1.23,14.34,1.71,5.57.61,5.57.58,7.67-4.44q5.58-13.31,11.14-26.6C428.12,1151.06,428.62,1149.54,429.17,1148Z" transform="translate(-14 -76)"/><path class="white-fill" d="M658.64,1080.91c-1-1.94-1.75-3.54-2.57-5.11-3.12-6-6.41-11.82-9.29-17.88a33.79,33.79,0,0,1-2.84-9.31,7.56,7.56,0,0,1,4.59-8.44,7.23,7.23,0,0,1,8.87,2.12c3.57,4.11,7.2,8.19,10.44,12.56q13.62,18.4,26.91,37a312.4,312.4,0,0,0,29.6,35.57c4,4.15,7.34,9,11.26,13.24,2.25,2.44,5.09,4.34,8,6.76,1.38-1.27,2.8-2.6,4.25-3.89,10.58-9.4,21.19-18.77,31.73-28.22,3-2.66,5.64-5.65,8.54-8.38,4.79-4.5,9.56-9,16.89-8.74,1.52,0,3.08-1,4.6-1.51,8.7-3.21,17.44.8,19.74,9.8a31.06,31.06,0,0,1,.36,12.88,118.89,118.89,0,0,1-5.28,19.42,1079,1079,0,0,1-45.68,108.42c-4.71,9.59-10.57,18.63-16,27.85a18.11,18.11,0,0,1-3.9,4.48,6.94,6.94,0,0,1-11.55-5.59,24.2,24.2,0,0,1,.44-3.78,410.73,410.73,0,0,1,18.27-70c.48-1.33.72-2.73,1.17-4.49a14.4,14.4,0,0,0-3.3-.53c-9.22.84-18.43,1.84-27.66,2.6-3,.25-4.93,2-6.91,3.89q-16.34,16-32.77,31.94a38.79,38.79,0,0,1-5.87,4.85c-4.75,3.08-10.24,2.84-14.24-.35a11.86,11.86,0,0,1-3.41-14.29,41.71,41.71,0,0,1,5.08-8.34c11.53-15.26,25-28.8,38.6-42.15,3.51-3.43,7.1-6.77,10.6-10.2a5.64,5.64,0,0,0,1.74-3.63c-3,1.11-6.2,1.85-9,3.37-14.15,7.8-28.61,15.14-42.16,23.89-18.29,11.81-35.95,24.63-53.69,37.27a427.94,427.94,0,0,1-41.72,26.74,48.18,48.18,0,0,1-5.89,2.82,7.2,7.2,0,0,1-8-1.62,15.63,15.63,0,0,0-4.88-3.14c-5.64-2.14-8.41-6.27-8.48-12.07a27.7,27.7,0,0,1,1.24-9.12c2.27-6.69,4.45-13.52,7.74-19.72a354.23,354.23,0,0,1,18.24-31,925.34,925.34,0,0,1,64.46-84.4C650.39,1088.41,654.57,1084.89,658.64,1080.91Zm-62.81,139a767.29,767.29,0,0,1,113-73.35l-2.87-3.2c-6.37-7-13.07-13.63-19-20.94-5.26-6.46-9.65-13.62-14.47-20.45-.87-1.24-1.92-2.36-3.26-4C646.27,1140.1,621.55,1180.21,595.83,1220Zm158.77-43.34c5.9.64,11.58,1.33,17.28,1.85,2.31.21,2.93-1.75,3.64-3.43q6.32-15.06,12.58-30.13a12.76,12.76,0,0,0,.35-3.06C780.26,1146.48,757.7,1169.54,754.6,1176.62Z" transform="translate(-14 -76)"/><path class="white-fill" d="M856.61,412.76c-3,0-4.72-.08-6.49,0-13.24.67-26.48,1.49-39.72,2-3.22.11-4.84,1.57-6.48,4-7.85,11.57-15.88,23-23.77,34.56a11.05,11.05,0,0,0-1.87,4.38c-1.51,9.69-7.57,15.95-15.69,20.31a9.61,9.61,0,0,1-14.26-6.25,22.18,22.18,0,0,1-.08-11.21,148.36,148.36,0,0,1,8.35-22.39c4.14-8.67,9-17,14-25.26q23.6-38.91,47.6-77.57c4.69-7.55,9.83-14.85,15.19-21.94a50.87,50.87,0,0,1,9.34-9,8.33,8.33,0,0,1,10.2-.5c3.52,2.31,4.22,5.87,3.31,9.63a95.14,95.14,0,0,1-3.57,11.43c-6.65,17.73-15.18,34.58-24,51.32-.85,1.6-1.63,3.24-2.39,4.89-.14.29,0,.69,0,1.45a13.67,13.67,0,0,0,2.91.24c13.69-1.74,27.36-3.67,41.07-5.23,4.07-.46,6.4-2.15,8.37-5.73,11-20.06,22.13-40.07,33.6-59.87,3.89-6.72,8.75-12.91,13.48-19.11a21.46,21.46,0,0,1,6.56-5.61c7-3.89,14.9.24,15.79,8.19a23,23,0,0,1-.55,8.09c-1.63,6.32-3.13,12.77-5.65,18.75-8.48,20.07-17.36,40-26.15,59.92-1.47,3.33-3.06,6.5-3,10.34a10,10,0,0,1-4.26,8.47c-3.21,2.36-5.08,5.57-6.88,9-12.19,23-25.53,45.26-41.55,65.81a122.21,122.21,0,0,1-12.38,13.74,30.66,30.66,0,0,1-10,6.38c-8.12,3-15-2.87-13.2-11.36a86.06,86.06,0,0,1,5.87-18.65c7.41-15.78,15.43-31.26,23.21-46.87C854.44,417.3,855.27,415.54,856.61,412.76Z" transform="translate(-14 -76)"/><path class="white-fill" d="M505.05,1180.94c-1.14,1.58-2.3,3.15-3.43,4.74q-18.4,25.68-36.82,51.35a53,53,0,0,1-6,7c-5,4.87-11.77,5.58-16.91,2.05s-6.81-10-4.11-16.55a41.49,41.49,0,0,1,3.25-6.28c7.8-12.46,15.84-24.78,23.48-37.35,15.28-25.13,30.34-50.39,45.53-75.58a56.47,56.47,0,0,1,5.17-7.66c4.82-5.66,10.95-6.73,17.64-3.47,1.79.88,3.63,1.64,5.47,2.4,5.25,2.16,7.74,6.21,6.1,11.72-1.49,5-1.18,10-1.52,15.06-.86,13-2.1,26-3.2,39.08l-.75,9,1.1.46c1-1.35,2.16-2.63,3.08-4.06,18.11-28.15,38.64-54.49,60.11-80.13,2.21-2.64,4.56-5.18,7-7.62a17.1,17.1,0,0,1,4.3-3.28c5.65-2.88,11.53.83,11.1,7.15a19.37,19.37,0,0,1-2.12,7.24c-3,6-6.14,12-9.57,17.72-17.17,28.88-34.59,57.6-51.61,86.57-7.08,12-13.37,24.55-20,36.84-2.34,4.31-4.55,8.7-7.1,12.88a32.5,32.5,0,0,1-5.43,6.76c-4.73,4.43-10.4,5.9-16.63,3.75s-9.72-6.88-10.7-13.28a41.86,41.86,0,0,1-.2-9.23c1.21-17,2.54-34,3.82-51.06.15-1.93.25-3.87.36-5.8Z" transform="translate(-14 -76)"/><path class="white-fill" d="M878.61,1140.4c1.87-.22,3.74-.43,5.61-.68,17.09-2.34,34.17-4.72,51.27-7a33.33,33.33,0,0,1,7.6-.18c10.74,1,16.7,10.28,12.88,20.4a32.78,32.78,0,0,1-6.07,10.23c-6.8,7.54-13.56,15.25-21.25,21.82q-29.21,24.95-59.3,48.82c-10.38,8.21-21.61,15.35-32.55,22.83-5.17,3.54-10.71,3.36-14.62-.07-4.11-3.6-5.06-9.29-2-14.94a56.65,56.65,0,0,1,6.29-8.85c12.53-15.21,27-28.48,42.47-40.57,12.32-9.6,24.88-18.9,37.32-28.34,1.52-1.15,3-2.36,4.47-3.54l-.53-1.19c-1.86.3-3.74.49-5.57.91-16.48,3.72-32.93,7.56-49.42,11.2-5,1.09-10,1.8-15,2.42a12.7,12.7,0,0,1-13.45-16,29.44,29.44,0,0,1,5.77-12.13c14.66-17.9,31.15-34,48-49.75,14.89-13.84,30.28-27.17,45.68-40.45a152,152,0,0,1,17.17-12.49,64.22,64.22,0,0,1,12.24-5.82,16.27,16.27,0,0,1,12.26.27c9.27,3.89,10.66,14.42,2.64,20.41-3.34,2.5-7.07,4.51-10.26,7.17-11.28,9.45-22.6,18.85-33.52,28.7-15,13.5-29.59,27.39-44.34,41.13-1.53,1.42-2.91,3-4.36,4.5Z" transform="translate(-14 -76)"/><path class="white-fill" d="M697.56,369.12h5.76c14,.06,27.88,1.82,41.7,4.12,16,2.66,20.93,17,11,29.2a157.73,157.73,0,0,1-15.67,16.61c-21.24,19.56-42.47,39.16-64.18,58.19-10.08,8.84-21.23,16.46-32,24.49a32.3,32.3,0,0,1-7.61,4.15,8.69,8.69,0,0,1-11.17-11.34,33.2,33.2,0,0,1,4-7.06,328.12,328.12,0,0,1,45.65-51.13c13-11.62,26.54-22.59,39.84-33.86,1.11-.93,2.21-1.87,3.26-2.86.18-.18.08-.65.16-1.79-1.93,0-3.86-.14-5.76,0q-20.61,1.75-41.22,3.62c-4.52.4-9,1.38-13.53,1.38-15.64,0-23.88-14.14-16.18-27.71a38.68,38.68,0,0,1,7-9c27.65-25.92,58.19-47.56,93.5-61.9a58.48,58.48,0,0,1,14.12-3.88,24,24,0,0,1,10.61,1.24c4.63,1.59,7.28,5.41,7.43,10.44s-2.62,8.12-6.67,10.45c-12.59,7.22-25.38,14.13-37.69,21.8-9.85,6.13-19.13,13.18-28.64,19.87-1.44,1-2.72,2.29-4.07,3.44C697.35,368.12,697.46,368.62,697.56,369.12Z" transform="translate(-14 -76)"/><path class="white-fill" d="M733.93,915.79l3.34,1.11-.41.79c-.93-.68-1.85-1.36-2.79-2Z" transform="translate(-14 -76)"/><path class="cls-1" d="M814.82,765c-11.21-3.36-22.09-3-33.12-2.94,1.24-11.8-4-20.51-11.07-28.4-5-5.57-11-9.83-17.47-13.73-26.66-16.21-56.11-19.81-86.42-19.42a136.41,136.41,0,0,0-20.55,2c-20,3.34-33.27,15.3-41.26,33.45s-10.68,37.58-10.34,57.39c0,.9.12,1.79.27,4a29.75,29.75,0,0,1-2.45-3.62,52.71,52.71,0,0,1-5-23.26c.39-10.83-.29-21.79,2.65-32.42.87-3.13,1.66-6.3,2.8-9.33,8-21.5,17.62-42.2,30.88-61.05a165.37,165.37,0,0,1,32.38-34.39,26.68,26.68,0,0,1,2.24-1.52c.08-.06.27.06.85.21-1,1.21-1.82,2.31-2.74,3.33C647.45,645.37,640.79,657,634.64,669c-1.86,3.63-3.53,7.48-2.26,12.22,4.74-1.67,7.15-5.83,10.79-8.32,3.9-2.66,7.58-5.63,11.43-8.36a90.82,90.82,0,0,1,11.63-7.14c-5.91,7.34-11.64,14.7-16.48,24.14,2.35-.26,3.59-.09,4.54-.54,4.75-2.27,9.44-4.65,14.11-7.07A100.32,100.32,0,0,1,693,665.22c4.64-1,8.39-.24,11.67,3.57a98.15,98.15,0,0,0,9.78,9.45c5.61,4.9,12.18,6.61,19.66,6.32,17.77-.7,35.56-1,53.34-1.36,14.66-.29,28.83,3,43,6.11,24.69,5.38,46.92,16.1,67.34,30.79.67.48,1.24,1.1,2.47,2.2-4,.25-7.36-.12-10.33.75a171.88,171.88,0,0,0-21.52,7.42c-7.94,3.52-15.49,7.95-23.14,12.1-.94.51-1.49,1.72-2.22,2.6,1,.66,1.94,1.76,3,1.88a67.7,67.7,0,0,0,9.23.31,105,105,0,0,1,36.07,4.74c-1.41.8-2.35,1.41-3.36,1.88a126.68,126.68,0,0,0-29.7,20c-12.12,10.72-24.47,21.1-38.28,29.64a54.91,54.91,0,0,0-5.28,3.82,31.55,31.55,0,0,0-2.87,3.27l34.39,2.75c0,.38.09.75.14,1.12a5.11,5.11,0,0,1-1.43.83c-11.1,2.14-19.85,8.65-28.44,15.4-4.71,3.7-9.32,7.53-13.87,11.42-2.19,1.86-4.21,2.06-7,1.06-34.07-12.26-69.12-17.8-105.34-15.06-1.63.12-3.26.27-4.89.37-2.14.13-3.37-.85-3.73-2.73,9-2.7,17.86-5.13,26.57-8s17.3-5.94,25.07-11.08c-19.94.55-39.56,2.71-58.87,8.12.6,4.91,1.15,9.36,1.76,14.39l-6,1c-7.5,1.3-15,2.54-22.5,3.94-1.62.3-3.9.26-3.59,3.38L676.28,833a44.59,44.59,0,0,1-1.11,18.23c-2.61-.16-5.24-.39-7.87-.46-8.89-.25-17.78-.49-26.66-.61a6.55,6.55,0,0,0-3.89,1.48c12.07,2.49,24.49.13,36.78,2.95-1,6.14-4.66,10.33-8.81,14.09-.9.8-3,.69-4.46.39-8.33-1.75-16.59-3.84-25-5.48a18.22,18.22,0,0,0-8.73.84c5.52,1,11.07,1.88,16.54,3.11s11.12,2.89,17,4.44c-12.43,11.43-40.94,11.93-57,4.75a92.87,92.87,0,0,0,7.27-6.52c6.35-6.94,10-14.7,6.44-24.34a4.15,4.15,0,0,1-.25-2.58c2-5.57-.51-10.06-3.76-14a17.92,17.92,0,0,1-4.15-9.67,59.91,59.91,0,0,1,.9-20.5c2-9.83,11.79-17.51,20.63-18.57,12-1.42,22.54,2.56,31.12,11.26a23.75,23.75,0,0,1,2.12,3c-1.42,1-2.71,1.83-4,2.74-5.44,3.92-10.92,7.8-16.29,11.81a7.78,7.78,0,0,0-3.62,5.8c1.72-1.19,2.9-1.91,4-2.75,18.76-14.75,39.93-24.94,62.16-33.24,21.14-7.9,43.11-11.23,65.49-12.65,6.31-.4,12.61-1.23,18.92-1.43C798.09,764.83,806.06,765,814.82,765ZM640.06,824.28c15.05-5.07,29.75-11,45.35-14.31s31.36-6.41,47.34-6.75c15.78-.33,31.59.62,47.39,1l.08-.26-33.5-3.88a78.65,78.65,0,0,0,29.52-30.5c-39.53.32-75.49,11.36-109.33,30.76l4.71,9.68C660.38,814,649.18,816.84,640.06,824.28Z" transform="translate(-14 -76)"/><path class="cls-1" d="M496.55,682c-.94-5.88-4.44-9.23-7-13s-5.79-7.41-9.09-11.56c3.86.64,6.16,3.15,8.84,4.89,3,2,6,4.1,8.91,6.26s5.51,4.17,8.17,6.36,5.06,4.37,8,6.92c1.73-3.81.71-6.5-.44-9.1a147.65,147.65,0,0,0-21.75-35.71,17.65,17.65,0,0,1-3.47-5.45c1.67,1.27,3.37,2.5,5,3.82,22.13,18.13,37.43,41.31,49.2,67,3.33,7.26,6.21,14.72,9.43,22,7.14,16.23,7.89,33.39,7.17,50.68a41.2,41.2,0,0,1-6.91,21.23c0-1.11,0-2.22,0-3.33.39-18.34-2.19-36.24-8.71-53.4-9.21-24.26-27.2-37-52.88-38.76-26.53-1.86-52.69.31-77.8,9.61-14.38,5.32-27.64,12.87-38,24.61-7.25,8.21-10.28,16.37-9.86,27-10.87,0-21.87-.51-32.8,3,9,0,17.52-.5,26,.09,21.69,1.53,43.53,2.49,64.63,8.32,29.3,8.11,56.65,20.42,80.8,39.24,1,.76,2,1.4,4,2.78-2.35-6.31-7.16-8.69-11.15-11.72s-8.37-5.73-13.16-9a43,43,0,0,1,4.41-5.11,37.42,37.42,0,0,1,27.65-9.3c8,.51,19.26,8.07,21.75,18.07,2.09,8.4,1.78,16.55.47,24.83-.26,1.63-1.72,3.05-2.57,4.6-1.72,3.15-4.71,6.27-4.83,9.49-.22,5.68-1.88,11.23-1.55,16.84.43,7.26,4.31,13,9.57,17.79,1.72,1.57,3.59,3,5.44,4.53-14.64,7.26-44.33,7-56.93-4.55,5.89-1.57,11.37-3.2,16.93-4.46,5.35-1.21,10.79-2,16.11-3.57-5.55-1.42-11-.25-16.33.82-5.68,1.13-11.29,2.72-16.85,4.4a5,5,0,0,1-5.77-1.54c-3.38-3.63-6.29-7.48-7.82-13.07a83.45,83.45,0,0,1,8.51-1.19c7.62-.28,15.25-.3,22.87-.49a14.17,14.17,0,0,0,5.6-1.19c-4-2.38-8.32-1.64-12.5-1.71s-8.36,0-12.53.25-8.58.74-13.12,1.15c-1.91-6-1.93-11.68-1.47-18,11.22.5,21.76,2.78,32.38,4.46.26-3.27-2-3.26-3.63-3.56-7.49-1.39-15-2.65-22.51-3.93-1.76-.3-3.54-.52-5.94-.88.56-4.91,1.09-9.49,1.67-14.57-19.21-5.4-38.84-7.54-58.77-8.15,7.69,5.31,16.39,8.23,25,11.13s17.57,5.31,26.54,8c-.49,3-2.84,2.68-5.28,2.62-10.71-.24-21.42-.6-32.12-.46-21.22.27-41.84,4.26-62,10.69-5.17,1.65-10.38,3.19-15.51,5a5.23,5.23,0,0,1-5.52-1.09c-3.93-3.23-7.76-6.59-11.85-9.59-6.28-4.62-12.53-9.33-19.2-13.32-3.94-2.36-8.67-3.42-13.18-5.11,11-4.35,22.89-1.4,35.17-4.21-2.26-1.9-3.7-3.47-5.45-4.53-15.6-9.46-29.49-21.11-43.13-33.14a118.8,118.8,0,0,0-32.29-20.56c8.13-2.13,15-4.08,22.1-4.44,5.79-.29,11.61-.12,17.42-.26a58.16,58.16,0,0,0,7.57-.67,2.63,2.63,0,0,0,1.79-1.67,2.61,2.61,0,0,0-1.18-2.11c-13.82-7.17-27-15.74-42.42-19.45-4-1-8.24-.92-13.18-1.42,1.44-1.2,2.51-2.21,3.7-3.07,23.66-17.17,50.19-27.21,78.79-32.69,19.12-3.66,38.28-3.46,57.52-3,8.71.23,17.43.59,26.13,1.16a26.18,26.18,0,0,0,20-6.84,95.91,95.91,0,0,0,9.35-9.12c3.13-3.69,6.85-4.77,11.18-3.4,7.76,2.45,15.54,4.94,23.1,7.94,5.37,2.14,10.39,5.17,15.6,7.74A26.73,26.73,0,0,0,496.55,682ZM372.41,803v1.26c2.52-.12,5-.19,7.56-.37,15.4-1.07,30.78-1.48,46.2.21,22.28,2.44,44.06,6.9,65.11,14.67,4.42,1.64,8.74,3.55,13.13,5.25a10.32,10.32,0,0,0,2.64.35c-9.19-7.44-20.22-10.44-31.44-14.28l4.51-9.85c-34-19.26-69.84-30.46-110.17-30.59,5,6.41,8.82,12.22,13.57,17.12s10.56,9,16.08,13.63Z" transform="translate(-14 -76)"/><path class="cls-1" d="M622.56,974.06a11.94,11.94,0,0,0-2.21,2.65c-5.93,13.64-14.91,25.32-24,36.89-7.64,9.73-15,19.59-21,30.49-.42.77-1,1.46-1.74,2.52-.82-.76-1.64-1.2-2-1.89-7.69-14.77-18.57-27.3-28.47-40.51-6.23-8.3-12-16.87-16.3-26.35a9.45,9.45,0,0,0-3-3.61c-1.61,10.24,1,20.72-3.78,30.76-.56-1.39-1.08-2.58-1.52-3.8-6.23-17.14-15.91-32.16-28-45.7-.36-.4-.73-.81-1.13-1.18-3-2.76-4.53-2.51-6,1.17a46.7,46.7,0,0,0-2.07,6.76c-.48,2-.65,4.15-1,6.62a15.21,15.21,0,0,1-2.07-1.77c-8.93-11-16.43-22.63-18.31-37.07-.05-.36-.09-.72-.17-1.07-1.55-6.88-2.65-7.45-8.91-4.14a10.71,10.71,0,0,1-8.8.61c-1.82-4.17-3.76-8.59-6.16-14.07,2.46.43,4.1.71,5.74,1,9.25,1.76,18.44,4.08,27.77,5.14,10.67,1.22,21.39.1,32.4-2,.19,1.5.46,2.84.52,4.18.33,6.89.57,13.79.92,20.68a26.89,26.89,0,0,0,9.75,19.9c6.59,5.68,12.52,12.31,20.93,15.32,9.88,3.54,19.87,6.93,30.54,7.31,14.22.52,28.1-.4,41.86-5.08A65.43,65.43,0,0,0,630.67,963c1.45-1.37,2.91-2.73,4.41-4a22.51,22.51,0,0,0,7.85-15.09c.66-7,.84-14.13,1.17-21.2.1-2.15,0-4.31,0-7.17,11.35,1.77,22.32,3.33,33.24,2s21.71-3.68,33.14-5.68c-1.88,4.31-3.44,8.67-5.66,12.67-1.29,2.32-4.17,2-6.43,1.31-1.71-.48-3.22-1.63-4.84-2.45-3.11-1.58-4.15-1.28-5.33,1.92a40.06,40.06,0,0,0-1.84,6.81c-2.49,13.88-9.8,25.22-18.69,35.73-.2.23-.62.27-1,.4-.87-3.42-1.6-6.88-2.63-10.24-2.13-6.93-3.68-7.34-8.39-2-11.2,12.58-20.37,26.45-26.45,42.24q-.87,2.29-1.85,4.53c-.13.3-.47.51-.94,1-4.77-9.45-2.66-19.45-2.79-29.19Z" transform="translate(-14 -76)"/><path class="cls-1" d="M768.12,591.07c-5.8-2.65-10.18-1.08-14.42,0s-8.43,2.8-13.23,4.44c5-11.42,13.46-19.53,21.29-28.35-12.27,1.48-22.63,6.88-33.1,14.53a25.29,25.29,0,0,1,1.22-3.88c5.41-10.13,11.55-19.75,19.76-27.9a17,17,0,0,0,3.44-4.72c-13.42,4.57-24.16,13.12-34.81,22.21.41-.93.77-1.88,1.24-2.78a255.22,255.22,0,0,1,30.45-45c1.89-2.23,2.81-5.11,5.93-6.44,4.51-1.91,5.46-2,7.79,2.41,5.74,10.75,10.81,21.72,13,33.91,2.24,12.34,4.57,24.63,3.86,37.26a153.65,153.65,0,0,1-6.79,36.85c-3,9.59-3.83,9.7-12.87,5.21-5.89-2.93-11.23-6.56-15.31-11.9C751,606.91,758.4,598.87,768.12,591.07Z" transform="translate(-14 -76)"/><path class="cls-1" d="M428.92,567.54c-10.65-9.21-21.42-17.59-35.41-23.2,2.61,5.32,6.82,8,9.59,11.76,2.88,4,5.83,7.88,8.47,12A96.89,96.89,0,0,1,418.41,581c-10.25-6.72-20.71-12.37-32.72-14.39l-.75,1c2.68,2.79,5.44,5.52,8,8.4a113.19,113.19,0,0,1,7.31,8.77c2.32,3.2,4.29,6.66,7.13,11.15-2.27-.75-3.3-1.12-4.34-1.43-5.37-1.59-10.7-3.33-16.14-4.68-3-.74-3.54-.34-7,1.71,4.11,3.95,8.38,7.52,12,11.67s6.63,9,9.8,13.36c-5.56,7.17-13.47,12.39-23.28,15.52-2.62-1.29-3.6-4-4.25-6.51-2.29-8.75-4.65-17.52-6.22-26.41-3.55-20.09-.53-39.84,4.95-59.13,2.4-8.45,6.74-16.4,10.62-24.37,2.21-4.53,2.92-4,7.77-2.29,4.13,1.48,5.06,5.33,7.32,8.07a247.84,247.84,0,0,1,29.27,43.81C428.28,565.94,428.58,566.75,428.92,567.54Z" transform="translate(-14 -76)"/><path class="cls-1" d="M462,832.32v20.59c-2.86.71-5.27,1.36-7.71,1.92-18.32,4.2-35.4,11.65-52.19,19.86-10.4,5.08-10.48,5.23-19.64-1.84-10.3-8-20.41-16.19-31.48-25,5.89-2.43,10.65-4.88,15.7-6.41a242.81,242.81,0,0,1,90.78-9.82C459,831.75,460.55,832.1,462,832.32Z" transform="translate(-14 -76)"/><path class="cls-1" d="M685.53,852.82c-.31-6.56-.61-13-.94-20.11a27,27,0,0,1,4.31-1,244.65,244.65,0,0,1,92.49,10c4.63,1.41,9,3.71,13.8,5.74a6.5,6.5,0,0,1-1.07,1.72c-11.18,9-22.42,17.86-33.57,26.86-2.94,2.38-5.58,3.14-9.3,1.2-6.09-3.17-12.56-5.6-18.81-8.47a204.82,204.82,0,0,0-43.7-14.8A29.42,29.42,0,0,1,685.53,852.82Z" transform="translate(-14 -76)"/><path class="cls-1" d="M715.28,902.79a109.48,109.48,0,0,1-20.51,7.11,116.13,116.13,0,0,1-44.8,1.84c-4-.61-6.26-2.12-7.46-6.42a26.06,26.06,0,0,0-10.81-15.2,10.78,10.78,0,0,1-1.6-1.43c-.11-.11-.11-.34-.32-1.06,1.14-.2,2.27-.71,3.3-.54,13.38,2.25,25.57-.85,36.76-8.2a7.17,7.17,0,0,1,7.59-.64c12.4,5.38,23.62,12.7,34.51,20.58C713.17,899.72,714,901.19,715.28,902.79Z" transform="translate(-14 -76)"/><path class="cls-1" d="M516.79,888.44c-1.07.91-2.13,1.83-3.2,2.73-4.86,4-8.7,9-10.11,15.1-.89,3.86-3,5.2-6.28,5.38-9.21.47-18.46,1.51-27.62,1A95.65,95.65,0,0,1,432,902.57c1.32-1.52,2.23-3.07,3.56-4,10.45-7.54,21.26-14.46,33-19.87a8.88,8.88,0,0,1,9.55.7c10.72,6.92,22.45,9.84,35.22,7.81a14.43,14.43,0,0,1,3.06.19Z" transform="translate(-14 -76)"/><path class="cls-1" d="M471.15,874.53a11.48,11.48,0,0,1-1.86,1.35A190.07,190.07,0,0,0,434,897.14c-4.33,3.22-8.07,3.71-12.78.61-7.25-4.79-14.89-9-22.34-13.45a33.46,33.46,0,0,1-2.92-2.29c2.66-1.91,4.82-3.85,7.3-5.16,16.4-8.65,33.43-15.7,51.64-19.61.35-.08.7-.2,1.05-.27,6.72-1.4,6.7-1.33,9.28,4.78C467,866,469.13,870.2,471.15,874.53Z" transform="translate(-14 -76)"/><path class="cls-1" d="M751.85,882.3c-10.49,6.15-20,11.7-29.48,17.29-2.69,1.58-5,.12-7.08-1.12-2.81-1.64-5.3-3.83-8.09-5.5-9.32-5.58-18.71-11-28.07-16.53-.93-.54-1.88-1-3.47-1.86,1.18-2.13,2.38-4.06,3.35-6.1,1.31-2.78,2.47-5.64,3.67-8.47,1.65-3.9,2-4.41,6.08-3.4,8.61,2.11,17.3,4.12,25.59,7.18,9.67,3.56,19,8.08,28.35,12.44C745.58,877.57,748.07,879.75,751.85,882.3Z" transform="translate(-14 -76)"/><path class="cls-1" d="M613.86,840.35c-2.22-2-3.59-2.92-4.58-4.16-7.23-9-17-9.93-27.13-7.7a37.39,37.39,0,0,1-17,0c-10.13-2.29-19.9-1.44-27.17,7.57a9.8,9.8,0,0,1-4.2,2.94,23.29,23.29,0,0,1,1.36-3.64c6-10.47,17.2-15.71,29.61-13.24a43.62,43.62,0,0,0,17.63,0c12.71-2.59,21.77,1.38,29.87,13.65C612.85,836.78,613,838,613.86,840.35Z" transform="translate(-14 -76)"/><path class="cls-1" d="M642.74,913.13a18.62,18.62,0,0,1-5.72,9.81,68.94,68.94,0,0,1-37.48,18.52,159.56,159.56,0,0,1-52.06,0,69.58,69.58,0,0,1-37.57-18.35,18.48,18.48,0,0,1-5.66-9.23c3,3.28,5.21,6.18,7.87,8.62a61.59,61.59,0,0,0,30.41,14.93c22.2,4.34,44.38,4.39,66.4-1.19a60,60,0,0,0,26.9-14.81C638.23,919.19,640.1,916.35,642.74,913.13Z" transform="translate(-14 -76)"/><path class="cls-1" d="M473.23,732.32c-.82,20.1,20.35,35.31,42.48,23.08-5,11.45-20.67,14.72-30.51,9.51C473.23,758.57,467.28,742.62,473.23,732.32Z" transform="translate(-14 -76)"/><path class="cls-1" d="M631.47,755.61c9.28,4.88,18.76,6.2,28.12,1.19s14.62-12.87,14-24.15c3.56,4.6,3.61,13.31-.24,20.49-4.69,8.73-11.74,14.23-22.15,14.15C642.43,767.23,635.94,763.2,631.47,755.61Z" transform="translate(-14 -76)"/><path class="cls-1" d="M512.84,738.81c3.23,9.46-.78,15.67-10.22,17.05a20.71,20.71,0,0,1-19.42-7.09c-2.94-3.28-3.19-7.21-2.32-11.22A6.46,6.46,0,0,1,486.5,732c.29,7.52,2.2,14.06,10.39,15.8C504.45,749.44,510,746.46,512.84,738.81Z" transform="translate(-14 -76)"/><path class="cls-1" d="M660,732a10.09,10.09,0,0,1,4.42,15.7c-6.77,8.7-16.7,11-26.58,5.89-5.63-2.93-7.06-8.67-3.75-14.72,2.12,3.84,3.78,8.07,8.38,8.75,2.81.42,6,.8,8.55,0C658.36,745.16,660.21,739,660,732Z" transform="translate(-14 -76)"/><path class="cls-1" d="M534.51,908.12c3,5.63,8.31,8.13,14,9.69a91.56,91.56,0,0,0,50-.07c5.6-1.58,11-3.94,13.58-10.84a7.19,7.19,0,0,1-3.49,8.31,53.65,53.65,0,0,1-12.65,6c-10.94,3.15-22.2,3.1-33.49,2.14a52.13,52.13,0,0,1-20.81-5.79C537.82,915.57,534.7,913,534.51,908.12Z" transform="translate(-14 -76)"/><path class="cls-1" d="M580.1,880.78v12.56h-13v-12.2C571.19,879.8,575.41,880.44,580.1,880.78Z" transform="translate(-14 -76)"/><path class="cls-1" d="M535.09,845.29c.36,10.48,11.16,17.56,22.65,10.26-.64,3.67-3.44,6.52-8,7.14-5,.68-10.07-.1-12.89-4.87C534.67,854.07,531.58,850,535.09,845.29Z" transform="translate(-14 -76)"/><path class="cls-1" d="M554.85,879.75l9.3.81v12.81l-9.3-1Z" transform="translate(-14 -76)"/><path class="cls-1" d="M583,892.81V880.6l9.26-.85V892C589.26,892.9,586.16,893.82,583,892.81Z" transform="translate(-14 -76)"/><path class="cls-1" d="M612.23,845.33c2.9,4.87.3,9.09-2.31,12.94-2.93,4.35-7.8,5.3-12.55,4.35-3.63-.74-7.49-2.24-8.61-7.33C601.26,861.75,610.07,857.68,612.23,845.33Z" transform="translate(-14 -76)"/><path class="cls-1" d="M611.51,897.38l-4.45-14.7,11.65,2.07A19.79,19.79,0,0,1,611.51,897.38Z" transform="translate(-14 -76)"/><path class="cls-1" d="M552.24,892.11l-9.66-4.88c2-8.75,3.59-9.91,9.66-7.52Z" transform="translate(-14 -76)"/><path class="cls-1" d="M595,879.8c5.73-2.59,7.1-1.68,9.5,6.56-2.08,3.32-5.59,4-9.5,4.95Z" transform="translate(-14 -76)"/><path class="cls-1" d="M528.32,884.78l11.7-2.15c-1.41,4.72-2.65,8.87-4,13.27C531.21,893.65,529.21,890.07,528.32,884.78Z" transform="translate(-14 -76)"/><path class="cls-1" d="M642.82,717.15a4.09,4.09,0,0,1,4.43,3.76c.18,2.71-2.33,5-5.78,5.21a3.68,3.68,0,0,1-4.09-3.36C637.17,720.09,639.92,717.26,642.82,717.15Z" transform="translate(-14 -76)"/><path class="cls-1" d="M509.73,722.46a3.82,3.82,0,0,1-3.85,3.71c-3.3-.08-6.11-2.4-6-5a4.07,4.07,0,0,1,4.17-4C506.94,717.09,509.83,719.79,509.73,722.46Z" transform="translate(-14 -76)"/><path class="cls-1" d="M510.67,360.16c-9,5.17-98.84,32.56-108.22,33.25a15.21,15.21,0,0,1,.54-3q9.74-24.54,19.54-49c1.29-3.21,1.62-3.37,6-2.25,11.6,3,23.17,6.05,34.78,9,13.53,3.44,27.1,6.78,40.64,10.18C505.8,358.78,507.63,359.33,510.67,360.16Z" transform="translate(-14 -76)"/><path class="cls-1" d="M601,352.16c0,.87,0,1.76-.13,2.62q-3.14,22.1-6.33,44.17c-.8,5.43-.93,5.49-6.4,6.15-5.95.71-11.89,1.41-17.84,2.06-1.94.22-3.9.28-5.67.39-.28-.58-.38-.73-.43-.89s-.14-.4-.07-.51q17.25-26.4,34.54-52.77a12.46,12.46,0,0,1,1.39-1.52Z" transform="translate(-14 -76)"/><path class="cls-1" d="M306.31,1097.32c26.61,3.34,52.73,5.45,78.6,9.51l.24,1.49a52.68,52.68,0,0,1-5.1,2.29q-19.08,6.39-38.2,12.65c-12.58,4.1-25.19,8.11-37.79,12.14-1.7.54-3.42,1-5.23,1.52-1.26-2.43.16-4.15.6-6,2.1-8.61,4.3-17.2,6.27-25.84C306.23,1102.74,306.1,1100.22,306.31,1097.32Z" transform="translate(-14 -76)"/><path class="cls-1" d="M429.17,1148c-.55,1.5-1.05,3-1.66,4.49q-5.55,13.31-11.14,26.6c-2.1,5-2.1,5-7.67,4.44-4.46-.48-8.91-1.06-14.34-1.71,3.11-5.45,7.18-9,10.74-12.86s7.1-7.77,10.89-11.41,8-7.13,12-10.68C428.41,1147.28,428.79,1147.66,429.17,1148Z" transform="translate(-14 -76)"/><path class="cls-1" d="M595.83,1220c25.72-39.75,50.44-79.86,73.38-121.94,1.34,1.64,2.39,2.76,3.26,4,4.82,6.83,9.21,14,14.47,20.45,5.94,7.31,12.64,14,19,20.94l2.87,3.2A767.29,767.29,0,0,0,595.83,1220Z" transform="translate(-14 -76)"/><path class="cls-1" d="M754.6,1176.62c3.1-7.08,25.66-30.14,33.85-34.77a12.76,12.76,0,0,1-.35,3.06Q781.86,1160,775.52,1175c-.71,1.68-1.33,3.64-3.64,3.43C766.18,1178,760.5,1177.26,754.6,1176.62Z" transform="translate(-14 -76)"/><path class="white-fill" d="M640.06,824.28c9.12-7.44,20.32-10.3,31.56-14.26l-4.71-9.68c33.84-19.4,69.8-30.44,109.33-30.76a78.65,78.65,0,0,1-29.52,30.5l33.5,3.88-.08.26c-15.8-.38-31.61-1.33-47.39-1-16,.34-31.69,3.42-47.34,6.75S655.11,819.21,640.06,824.28Z" transform="translate(-14 -76)"/><path class="white-fill" d="M372.41,803l27.2-2.6c-5.52-4.61-11.26-8.67-16.08-13.63S375,776.05,370,769.64c40.33.13,76.19,11.33,110.17,30.59l-4.51,9.85c11.22,3.84,22.25,6.84,31.44,14.28a10.32,10.32,0,0,1-2.64-.35c-4.39-1.7-8.71-3.61-13.13-5.25-21.05-7.77-42.83-12.23-65.11-14.67-15.42-1.69-30.8-1.28-46.2-.21-2.52.18-5,.25-7.56.37Z" transform="translate(-14 -76)"/></svg>